# AST/ASF file generated using VICON BodyLanguage
# -----------------------------------------------
:version 1.10
:name VICON
:units
  mass 1.0
  length 0.45
  angle deg
:documentation
   .ast/.asf automatically generated from VICON data using
   VICON BodyBuilder and BodyLanguage model FoxedUp or BRILLIANT.MOD
:root
   order TX TY TZ RX RY RZ
   axis XYZ
   position 0 0 0  
   orientation 0 0 0 
:bonedata
  begin
     id 1 
     name lhipjoint
     direction 0.567149 -0.783011 0.255413 
     length 2.28399 
     axis 0 0 0  XYZ
  end
  begin
     id 2 
     name lfemur
     direction 0.34202 -0.939693 0  
     length 7.34031  
     axis 0 0 20  XYZ
    dof rx ry rz
    limits (-160.0 20.0)
           (-70.0 70.0)
           (-60.0 70.0)
  end
  begin
     id 3 
     name ltibia
     direction 0.34202 -0.939693 0   
     length 6.9833   
     axis 0 0 20   XYZ
    dof rx
    limits (-10.0 170.0)
  end
  begin
     id 4 
     name lfoot
     direction 0.136498 -0.375025 0.91691   
     length 2.33665   
     axis -90 7.62852e-016 20   XYZ
    dof rx rz
    limits (-45.0 90.0)
           (-70.0 20.0)
  end
  begin
     id 5 
     name ltoes
     direction 1.5367e-011 -4.21617e-011 1   
     length 1.15039   
     axis -90 7.62852e-016 20   XYZ
    dof rx
    limits (-90.0 20.0)
  end
  begin
     id 6 
     name rhipjoint
     direction -0.602854 -0.758518 0.247423   
     length 2.35775  
     axis 0 0 0  XYZ 
  end
  begin
     id 7 
     name rfemur
     direction -0.34202 -0.939693 0   
     length 7.43932   
     axis 0 0 -20   XYZ
    dof rx ry rz
    limits (-160.0 20.0)
           (-70.0 70.0)
           (-70.0 60.0)
  end
  begin
     id 8 
     name rtibia
     direction -0.34202 -0.939693 0   
     length 7.11893   
     axis 0 0 -20   XYZ
    dof rx
    limits (-10.0 170.0)
 end
 begin
     id 9 
     name rfoot
     direction -0.131771 -0.362037 0.922803   
     length 2.53019  
     axis -90 -7.62852e-016 -20   XYZ
    dof rx rz
    limits (-45.0 90.0)
           (-20.0 70.0)
  end
  begin
     id 10 
     name rtoes
     direction -1.53733e-011 -4.21932e-011 1   
     length 1.24596   
     axis -90 -7.62852e-016 -20   XYZ
    dof rx
    limits (-90.0 20.0)
  end
  begin
     id 11 
     name lowerback
     direction 0.0235427 0.999023 -0.0374125   
     length 2.21768   
     axis 0 0 0   XYZ
    dof rx ry rz
    limits (-20.0 45.0)
           (-30.0 30.0)
           (-30.0 30.0)
  end
  begin
     id 12 
     name upperback
     direction 0.0302156 0.996818 -0.073759   
     length 2.20352   
     axis 0 0 0   XYZ
    dof rx ry rz
    limits (-20.0 45.0)
           (-30.0 30.0)
           (-30.0 30.0)
  end
  begin
     id 13 
     name thorax
     direction 0.0187169 0.998235 -0.0563532   
     length 2.22103   
     axis 0 0 0   XYZ
    dof rx ry rz
    limits (-20.0 45.0)
           (-30.0 30.0)
           (-30.0 30.0)
  end
  begin
     id 14 
     name lowerneck
     direction -0.119528 0.987423 0.103481   
     length 1.72948   
     axis 0 0 0   XYZ
    dof rx ry rz
    limits (-20.0 45.0)
           (-30.0 30.0)
           (-30.0 30.0)
  end
  begin
     id 15 
     name upperneck
     direction 0.248049 0.963095 -0.104496   
     length 1.74979   
     axis 0 0 0   XYZ
    dof rx ry rz
    limits (-20.0 45.0)
           (-30.0 30.0)
           (-30.0 30.0)
  end
  begin
     id 16
     name head
     direction 0.0903589 0.994284 -0.056876  
     length 1.78268  
     axis 0 0 0   XYZ
    dof rx ry rz
    limits (-20.0 45.0)
           (-30.0 30.0)
           (-30.0 30.0)
  end
  begin
     id 17 
     name lclavicle
     direction 0.946008 0.242039 -0.215608  
     length 3.80783  
     axis 0 0 0   XYZ
    dof ry rz
    limits (-20.0 10.0)
           (0.0 20.0)
  end
  begin
     id 18 
     name lhumerus
     direction 1 -4.48991e-011 -2.25695e-027   
     length 4.83125   
     axis 180 -30 -90   XYZ
    dof rx ry rz
    limits (-60.0 90.0)
           (-90.0 90.0)
           (-90.0 90.0)
  end
  begin
     id 19
     name lradius
     direction 0.999991 0.00366712 -0.00211721   
     length 3.00391   
     axis 180 -30 -90   XYZ
    dof rx
    limits (-10.0 170.0)
  end
  begin
     id 20
     name lwrist
     direction 0.999991 0.00393016 -0.00141978   
     length 1.50195   
     axis -1.00488e-014 90 90   XYZ
    dof ry
    limits (-180.0 0.0)
 end
  begin
     id 21 
     name lhand
     direction 1 -4.49123e-011 2.72098e-026   
     length 1.2717   
     axis -1.73687e-014 90 90   XYZ
    dof rx rz
    limits (-90.0 90.0)
           (-45.0 45.0)
  end
  begin
     id 22 
     name lfingers
     direction 1 -4.48678e-011 5.4479e-026   
     length 1.02528   
     axis -3.47372e-014 90 90   XYZ
    dof rx
    limits (0.0 90.0)
  end
  begin
     id 23
     name lthumb
     direction 0.707107 -6.34851e-011 0.707107   
     length 1.4721   
     axis -90 45 -1.62303e-014   XYZ
    dof rx rz
    limits (-45.0 45.0)
           (-45.0 45.0)
  end
  begin
     id 24 
     name rclavicle
     direction -0.981723 0.189447 -0.0181673   
     length 3.74989  
     axis 0 0 0   XYZ 
    dof ry rz
    limits (-10.0 20.0)
           (-20.0 0.0)
  end
  begin
     id 25 
     name rhumerus
     direction -1 -4.48985e-011 2.38206e-027  
     length 4.61118   
     axis 180 30 90   XYZ
    dof rx ry rz
    limits (-90.0 60.0)
           (-90.0 90.0)
           (-90.0 90.0)
  end
  begin
     id 26 
     name rradius
     direction -1 -4.48977e-011 7.41019e-027   
     length 2.91491   
     axis 180 30 90   XYZ
    dof rx
    limits (-10.0 170.0)
  end
  begin
     id 27 
     name rwrist
     direction -1 -4.48549e-011 1.3624e-026   
     length 1.45745   
     axis -1.00488e-014 -90 -90   XYZ
    dof ry
    limits (-180.0 0.0)
  end
  begin
     id 28
     name rhand
     direction -1 -4.49107e-011 2.72109e-026   
     length 1.30769   
     axis -1.73687e-014 -90 -90   XYZ
    dof rx rz
    limits (-90.0 90.0)
           (-45.0 45.0)
  end
  begin
     id 29
     name rfingers
     direction -1 -4.48919e-011 5.44468e-026   
     length 1.05429   
     axis -3.47372e-014 -90 -90   XYZ
    dof rx
    limits (0.0 90.0)
  end
  begin
     id 30
     name rthumb
     direction -0.707107 -6.35315e-011 0.707107   
     length 1.51376   
     axis -90 -45 1.62303e-014   XYZ
    dof rx rz
    limits (-45.0 45.0)
           (-45.0 45.0)
  end
:hierarchy
  begin
    root lhipjoint rhipjoint lowerback
    lhipjoint lfemur
    lfemur ltibia
    ltibia lfoot
    lfoot ltoes
    rhipjoint rfemur
    rfemur rtibia
    rtibia rfoot
    rfoot rtoes
    lowerback upperback
    upperback thorax
    thorax lowerneck lclavicle rclavicle
    lowerneck upperneck
    upperneck head
    lclavicle lhumerus
    lhumerus lradius
    lradius lwrist
    lwrist lhand lthumb
    lhand lfingers
    rclavicle rhumerus
    rhumerus rradius
    rradius rwrist
    rwrist rhand rthumb
    rhand rfingers
  end

#!OML:ASF X:\für Bonn\!DataBase\2005_08_11_Bastian_Final\c3d\Bastian.ASF
:FULLY-SPECIFIED
:DEGREES
1
root -1.19316 17.172 4.98291 165.344 -17.0366 -175
lowerback 4.96432 -2.23037 2.62224
upperback 6.54148 -3.54526 1.99112
thorax 3.96721 -1.94874 0.626308
lowerneck -5.66813 -8.52181 -3.06422
upperneck -5.6276 -11.4284 7.10529
head -0.194515 -5.84844 2.52228
rclavicle 2.43511e-014 1.78906e-014
rhumerus -32.9003 37.6496 -87.0709
rradius 45.0295
rwrist -14.8269
rhand -38.6771 6.37117
rfingers 7.12502
rthumb -11.6922 -23.2826
lclavicle 2.43511e-014 1.78906e-014
lhumerus -22.9626 -26.7983 96.427
lradius 47.7824
lwrist -4.86856
lhand -43.5543 -4.96302
lfingers 7.12502
lthumb -16.3921 24.3643
rfemur -3.20475 -7.27644 25.3155
rtibia 42.3031
rfoot -21.5425 -15.9865
rtoes 4.00352
lfemur 1.82524 -2.42709 -14.5084
ltibia 34.058
lfoot -15.8206 -7.46636
ltoes -17.2769
2
root -1.21695 17.1729 5.01377 165.132 -17.3132 -175.13
lowerback 5.45816 -2.24537 2.45507
upperback 6.7392 -3.58395 1.88955
thorax 3.90174 -1.98699 0.634105
lowerneck -5.81656 -8.54949 -2.89649
upperneck -5.96221 -11.4901 7.27371
head -0.271999 -5.89993 2.54971
rclavicle 1.11816e-015 8.54774e-015
rhumerus -33.6164 36.7667 -88.2449
rradius 43.5802
rwrist -15.6804
rhand -38.7399 5.8964
rfingers 7.12502
rthumb -11.7528 -23.7539
lclavicle 1.11816e-015 8.54774e-015
lhumerus -22.0306 -27.2407 96.153
lradius 49.4216
lwrist -4.7976
lhand -44.0197 -5.6573
lfingers 7.12502
lthumb -16.8401 23.6325
rfemur -3.34893 -7.77352 24.8054
rtibia 42.829
rfoot -21.0256 -15.6013
rtoes 3.45925
lfemur 2.04024 -2.50716 -14.8113
ltibia 33.89
lfoot -15.6003 -7.60367
ltoes -16.8858
3
root -1.24052 17.1713 5.0443 164.913 -17.5734 -175.229
lowerback 5.9351 -2.25805 2.32131
upperback 6.94617 -3.62526 1.80348
thorax 3.85565 -2.02686 0.638555
lowerneck -5.98528 -8.57783 -2.77029
upperneck -6.28562 -11.5514 7.45152
head -0.339575 -5.95107 2.58595
rclavicle -7.16867e-015 3.22031e-014
rhumerus -34.1768 35.8715 -89.2772
rradius 42.1251
rwrist -16.5021
rhand -38.7132 5.43631
rfingers 7.12502
rthumb -11.7271 -24.2154
lclavicle -7.16867e-015 3.22031e-014
lhumerus -21.0056 -27.6721 95.8634
lradius 51.0443
lwrist -4.81159
lhand -44.414 -6.24701
lfingers 7.12502
lthumb -17.2197 23.01
rfemur -3.54179 -8.19952 24.3363
rtibia 43.4435
rfoot -20.4798 -15.2173
rtoes 2.8675
lfemur 2.25063 -2.5211 -15.0618
ltibia 33.7349
lfoot -15.4104 -7.80364
ltoes -16.5395
4
root -1.26378 17.1697 5.07466 164.681 -17.815 -175.31
lowerback 6.43272 -2.28191 2.22128
upperback 7.13532 -3.68045 1.71704
thorax 3.77821 -2.07264 0.626494
lowerneck -6.10519 -8.58796 -2.63611
upperneck -6.61188 -11.5886 7.60239
head -0.419767 -5.99116 2.61602
rclavicle 5.69518e-014 -1.37161e-014
rhumerus -34.7105 35.0378 -90.2502
rradius 40.7414
rwrist -17.3261
rhand -38.5432 4.95611
rfingers 7.12502
rthumb -11.5631 -24.7049
lclavicle 5.69518e-014 -1.37161e-014
lhumerus -19.9407 -28.0921 95.535
lradius 52.6736
lwrist -4.87534
lhand -44.7488 -6.71275
lfingers 7.12502
lthumb -17.542 22.5158
rfemur -3.76798 -8.559 23.8946
rtibia 44.1428
rfoot -19.8299 -14.826
rtoes 2.50828
lfemur 2.45897 -2.48341 -15.2736
ltibia 33.5976
lfoot -15.224 -8.04264
ltoes -16.2209
5
root -1.28692 17.168 5.10383 164.444 -18.0614 -175.411
lowerback 6.88331 -2.29335 2.11154
upperback 7.37109 -3.7305 1.62952
thorax 3.77759 -2.1184 0.614764
lowerneck -6.25528 -8.60708 -2.56908
upperneck -6.96856 -11.6364 7.80602
head -0.496756 -6.03815 2.6737
rclavicle 4.87768e-014 -2.38542e-015
rhumerus -35.0768 34.1371 -91.0491
rradius 39.384
rwrist -18.1405
rhand -38.2719 4.51705
rfingers 7.12502
rthumb -11.3015 -25.1585
lclavicle 4.87768e-014 -2.38542e-015
lhumerus -18.7056 -28.5875 95.1572
lradius 54.2796
lwrist -4.95998
lhand -45.0349 -7.03409
lfingers 7.12502
lthumb -17.8172 22.1697
rfemur -4.04195 -8.89685 23.4297
rtibia 44.9486
rfoot -19.1104 -14.458
rtoes 1.93874
lfemur 2.69053 -2.43029 -15.5059
ltibia 33.4616
lfoot -15.0522 -8.27743
ltoes -15.8556
6
root -1.31016 17.1669 5.13355 164.226 -18.2955 -175.518
lowerback 7.35251 -2.31054 2.02967
upperback 7.57609 -3.78293 1.52158
thorax 3.7319 -2.16278 0.569193
lowerneck -6.35122 -8.61613 -2.47566
upperneck -7.35051 -11.6727 7.99562
head -0.594118 -6.08229 2.72719
rclavicle 1.74434e-014 7.85199e-015
rhumerus -35.4639 33.2275 -91.8422
rradius 38.1085
rwrist -18.9527
rhand -37.982 4.11075
rfingers 7.12502
rthumb -11.0219 -25.5799
lclavicle 1.74434e-014 7.85199e-015
lhumerus -17.4269 -29.057 94.7387
lradius 55.8956
lwrist -5.09161
lhand -45.2596 -7.274
lfingers 7.12502
lthumb -18.0335 21.91
rfemur -4.39714 -9.16316 22.9653
rtibia 45.8646
rfoot -18.297 -14.0799
rtoes 1.70224
lfemur 2.91333 -2.40457 -15.7511
ltibia 33.3137
lfoot -14.8714 -8.49701
ltoes -15.2571
7
root -1.3332 17.1668 5.16434 163.995 -18.5198 -175.627
lowerback 7.85671 -2.34429 1.95684
upperback 7.75842 -3.85602 1.41889
thorax 3.64354 -2.2176 0.528311
lowerneck -6.34403 -8.6168 -2.45445
upperneck -7.76242 -11.6905 8.21545
head -0.713182 -6.11819 2.81047
rclavicle -2.07606e-014 -1.49089e-015
rhumerus -35.8404 32.3416 -92.5715
rradius 36.9064
rwrist -19.7393
rhand -37.6451 3.69863
rfingers 7.12502
rthumb -10.697 -26.0091
lclavicle -2.07606e-014 -1.49089e-015
lhumerus -16.1324 -29.4479 94.3214
lradius 57.509
lwrist -5.26147
lhand -45.4604 -7.49868
lfingers 7.12502
lthumb -18.2266 21.6674
rfemur -4.81703 -9.38931 22.5031
rtibia 46.9105
rfoot -17.3683 -13.733
rtoes 1.24598
lfemur 3.16127 -2.33411 -15.9892
ltibia 33.1395
lfoot -14.674 -8.72186
ltoes -14.8607
8
root -1.35533 17.1674 5.19741 163.756 -18.7559 -175.719
lowerback 8.40533 -2.39134 1.93339
upperback 7.92517 -3.94331 1.30535
thorax 3.51146 -2.27746 0.453677
lowerneck -6.35684 -8.6132 -2.44114
upperneck -8.12659 -11.7018 8.41269
head -0.815353 -6.14874 2.88577
rclavicle -3.52159e-014 1.0635e-014
rhumerus -36.2454 31.4979 -93.2893
rradius 35.8466
rwrist -20.6027
rhand -37.4112 3.30105
rfingers 7.12502
rthumb -10.4713 -26.4182
lclavicle -3.52159e-014 1.0635e-014
lhumerus -14.8055 -29.861 93.8568
lradius 59.1398
lwrist -5.46404
lhand -45.6945 -7.67146
lfingers 7.12502
lthumb -18.4518 21.4734
rfemur -5.31344 -9.6015 22.0596
rtibia 48.0732
rfoot -16.3165 -13.3994
rtoes 0.543607
lfemur 3.41221 -2.27777 -16.2115
ltibia 32.9438
lfoot -14.4598 -8.94779
ltoes -14.4054
